<?xml version="1.0" standalone="no"?><!DOCTYPE svg PUBLIC "-//W3C//DTD SVG 1.1//EN" "http://www.w3.org/Graphics/SVG/1.1/DTD/svg11.dtd"><svg t="1746845478931" class="icon" viewBox="0 0 1024 1024" version="1.1" xmlns="http://www.w3.org/2000/svg" p-id="11992" xmlns:xlink="http://www.w3.org/1999/xlink" width="48" height="48"><path d="M579.907347 8.30092C692.91826 35.203661 778.626435 128.412765 795.328275 242.323669c22.001788 149.914558-76.90726 290.228208-225.921827 320.23092-10.4009 2.09998-20.901799 3.299968-32.702686 5.100951v9.900904c1.199988 218.620897 2.299978 194.819126 3.399968 413.440023 0 4.299959 0.199998 8.900914-0.799993 13.000875-3.299968 13.200873-16.001846 21.701791-29.402717 19.701811-13.300872-1.899982-22.701782-13.000875-22.701781-27.102739-0.599994-106.409976-1.199988 29.602715-1.699984-76.707263l-1.799983-345.433677c0-2.299978-0.199998-4.599956-0.199998-4.599956-27.00274-7.700926-54.005481-12.400881-78.607244-22.80178-104.709993-44.304574-165.916404-123.211815-177.71729-235.722733C211.872887 166.017403 310.582937 35.104662 454.196556 5.800944c11.500889-2.299978 23.101778-3.899962 34.703666-5.800944h46.004558c15.001856 2.699974 30.202709 4.700955 45.004567 8.30092z m-52.104499 97.110066c4.399958 0.199998 7.900924 0.499995 11.40089 0.499995 18.101826-0.199998 31.002702-13.700868 29.002721-30.10271-1.699984-13.700868-12.700878-23.401775-29.002721-24.502765-9.40091-0.699993-18.901818-0.699993-28.302727-0.199998-62.606398 4.099961-116.610878 26.502745-158.515476 74.107288-27.702734 31.502697-44.404573 68.60634-53.905481 109.010951-3.799963 15.801848 4.599956 30.202709 18.70182 34.103672 14.60186 3.999962 28.402727-3.699964 34.003673-19.101816 2.09998-5.800944 3.399967-11.800886 5.300949-17.601831 28.502726-91.909116 96.609071-126.211786 171.316352-126.211786zM359.686465 344.433687c-0.299997-17.901828-14.901857-32.20269-32.702685-32.20269-17.901828 0-32.402688 14.401861-32.702686 32.20269 0 18.001827 14.60186 32.602686 32.702686 32.602686h0.499995c17.901828-0.199998 32.302689-14.701859 32.20269-32.602686z" p-id="11993" fill="#1296db"></path></svg>